<?xml version="1.0" encoding="UTF-8"?>
<svg width="250px" height="96px" viewBox="0 0 250 96" version="1.1" xmlns="http://www.w3.org/2000/svg" xmlns:xlink="http://www.w3.org/1999/xlink">
    <!-- Generator: Sketch 49 (51002) - http://www.bohemiancoding.com/sketch -->
    <title>logo</title>
    <desc>Created with Sketch.</desc>
    <defs></defs>
    <g id="Page-1" stroke="none" stroke-width="1" fill="none" fill-rule="evenodd">
        <g id="Viewport" transform="translate(-320.000000, -49.000000)" fill="#FFFFFF">
            <g id="logo" transform="translate(320.000000, 49.000000)">
                <path d="M21.3685434,52.7788123 C21.3685434,48.9272717 20.8783473,35.4118655 20.8783473,35.4118655 C20.8783473,34.3614454 22.6290476,33.8012213 24.3797479,33.8012213 C25.7803081,33.8012213 27.1808683,34.1513613 27.3909524,35.2017815 C24.5198039,60.9020616 27.0408123,83.8712493 18.987591,92.2746106 C16.6766667,94.725591 13.9455742,95.7760112 11.2845098,95.7760112 C5.47218487,95.7760112 0.01,90.6639664 0.01,83.7311933 C0.01,83.2409972 0.01,82.9608852 0.290112045,82.8208291 C0.57022409,82.7508011 0.780308123,82.5407171 1.06042017,82.5407171 C1.20047619,82.5407171 1.34053221,82.6807731 1.34053221,82.9608852 C1.34053221,88.07293 5.89235294,91.9244706 10.1640616,91.9244706 C11.9147619,91.9244706 13.5954342,91.2942185 14.9259664,89.8936583 C20.2480952,84.2213894 21.3685434,66.7844146 21.3685434,52.7788123 Z M26.2004762,15.7339944 C28.7214846,15.7339944 29.7719048,17.5547227 29.7719048,19.585535 C29.7719048,21.9664874 28.3013165,24.6275518 26.0604202,24.6275518 C23.1892717,24.6275518 21.9987955,22.7367955 21.9987955,20.6359552 C21.9987955,18.2550028 23.6094398,15.7339944 26.2004762,15.7339944 Z M40.9763866,32.3306331 C44.6878711,32.3306331 46.5085994,34.7115854 46.9987955,37.9328739 C48.2592997,38.283014 50.01,38.8432381 50.01,39.6835742 C50.01,41.7143866 49.0296078,48.0869356 49.0296078,53.0589244 C49.0296078,56.6303529 49.5198039,59.4314734 51.2705042,59.4314734 C52.8111204,59.4314734 54.7018768,58.0309132 55.4021569,56.3502409 C56.172465,56.1401569 56.312521,55.2297927 56.522605,55.2297927 C56.8027171,55.2297927 56.8027171,55.6499608 56.8027171,55.8600448 C56.8027171,59.5715294 53.5114006,62.9328739 50.290112,62.9328739 C47.5590196,62.9328739 44.8979552,60.5519216 44.1976751,54.2494006 C42.3069188,59.1513613 39.6458543,62.9328739 36.9147619,62.9328739 C32.0828291,62.9328739 29.9819888,57.8208291 29.9819888,51.7984202 C29.9819888,43.0449188 34.3237255,32.3306331 40.9763866,32.3306331 Z M36.1444538,59.5015014 C41.8867507,59.5015014 43.987591,45.5659272 44.6178431,40.0337143 C43.4273669,38.493098 42.3069188,37.7928179 41.2564986,37.7928179 C36.9147619,37.7928179 34.0436134,49.0673277 34.0436134,54.5995406 C34.0436134,57.4706891 34.7438936,59.5015014 36.1444538,59.5015014 Z M55.6822689,50.677972 C55.6822689,41.8544426 60.8643417,31.5603249 67.5870308,31.5603249 C70.3881513,31.5603249 72.4889916,33.7311933 72.8391317,38.493098 C72.9091597,38.8432381 72.9791877,39.2634062 72.9791877,39.6135462 C72.9791877,41.8544426 71.1584594,43.5351148 68.777507,43.5351148 C67.3069188,43.5351148 66.7466947,42.9748908 66.7466947,42.6247507 C66.7466947,42.4846947 66.8167227,42.4146667 66.9567787,42.4146667 C67.5170028,42.3446387 68.777507,39.6835742 68.777507,38.07293 C68.777507,37.5127059 68.637451,37.0925378 68.2873109,36.9524818 C64.5057983,37.2325938 60.4441737,45.5659272 60.4441737,52.1485602 C60.4441737,57.4706891 63.3853501,60.2718095 66.1164426,60.2718095 C68.637451,60.2718095 71.0184034,57.9608852 71.0184034,53.3390364 C71.0184034,51.8684482 70.7382913,50.2578039 70.1780672,48.5071036 C70.1780672,48.4370756 70.1780672,48.0869356 71.0184034,48.0869356 C73.0492157,48.0869356 74.5898319,51.1681681 74.5898319,54.5295126 C74.5898319,60.5519216 70.7382913,63.5631261 66.4665826,63.5631261 C61.3545378,63.5631261 55.6822689,59.2213894 55.6822689,50.677972 Z M84.8839496,16.0841345 C87.0548179,16.0841345 87.9651821,17.5547227 87.9651821,19.305423 C87.9651821,21.9664874 85.9343697,25.3278319 83.4833894,25.3278319 C81.242493,25.3278319 80.2621008,23.6471597 80.2621008,21.7564034 C80.2621008,19.1653669 82.0828291,16.0841345 84.8839496,16.0841345 Z M81.5926331,62.9328739 C77.6710644,62.9328739 76.4805882,57.8908571 76.4805882,52.0085042 C76.4805882,45.0057031 78.0212045,34.9916975 79.2817087,34.9916975 C80.4721849,34.9916975 81.6626611,34.9216695 83.5534174,34.5015014 C84.3937535,34.5015014 84.3937535,35.0617255 84.3937535,35.0617255 C82.5730252,45.2157871 81.5926331,49.2774118 81.5926331,56.2802129 C81.5926331,58.5911373 82.1528571,59.5015014 82.8531373,59.5015014 C87.9651821,59.5015014 90.3461345,45.9160672 92.3769468,39.7536022 C93.497395,36.4622857 94.4777871,33.8712493 95.3881513,33.8712493 C96.6486555,33.8712493 97.5590196,33.1009412 98.1192437,33.1009412 C98.6794678,33.1009412 98.7494958,36.2522017 98.7494958,39.1233501 C98.7494958,44.655563 98.6794678,47.4566835 98.6794678,50.1877759 C100.920364,45.2858151 103.511401,37.0925378 107.573025,33.2409972 C107.783109,33.1009412 107.923165,33.0309132 108.133249,33.0309132 C108.903557,33.0309132 111.354538,34.6415574 111.354538,35.4818936 C111.354538,35.6219496 111.354538,35.6919776 111.28451,35.8320336 C109.53381,39.7536022 108.833529,45.9860952 108.833529,50.1877759 C108.833529,53.8992605 109.743894,57.5407171 111.214482,57.5407171 C112.054818,57.5407171 113.105238,56.3502409 114.225686,53.2690084 C114.225686,53.2690084 114.365742,53.1989804 114.505798,53.1989804 C114.645854,53.1989804 114.715882,53.2690084 114.715882,53.4090644 C114.715882,56.2802129 112.825126,60.5519216 110.024006,60.5519216 C103.931569,60.5519216 103.511401,48.5771317 103.511401,45.0757311 C100.150056,48.7171877 98.4693838,58.3110252 96.9287675,62.9328739 C96.8587395,63.42307 96.4385714,63.6331541 95.8783473,63.6331541 C94.4077591,63.6331541 92.5870308,61.9524818 92.5870308,61.7423978 C92.5870308,61.6023417 93.0772269,57.050521 93.497395,51.3782521 C93.707479,48.3670476 94.1976751,43.0449188 94.1976751,39.6835742 C94.1976751,39.0533221 94.1276471,38.7031821 94.057619,38.7031821 C92.7971148,38.7031821 90.2761064,62.9328739 81.5926331,62.9328739 Z M124.589832,59.8516415 C127.320924,59.8516415 130.122045,56.5603249 130.122045,52.0085042 C130.122045,50.818028 129.911961,49.5575238 129.491793,48.2269916 C129.491793,48.1569636 129.491793,47.8068235 130.332129,47.8068235 C132.923165,47.8068235 133.483389,50.677972 133.483389,53.1289524 C133.483389,58.1009412 129.631849,63.002902 124.449776,63.002902 C117.236891,63.002902 114.225686,56.6303529 114.225686,49.6275518 C114.225686,41.1541625 118.637451,31.840437 125.430168,31.840437 C128.581429,31.840437 130.332129,34.1513613 130.332129,37.3726499 C130.332129,41.7143866 127.11084,47.5967395 119.757899,51.7984202 C120.178067,57.6107451 122.278908,59.8516415 124.589832,59.8516415 Z M126.270504,37.2325938 C126.270504,36.6023417 125.990392,35.9020616 125.220084,35.9020616 C122.138852,35.9020616 119.827927,42.6247507 119.687871,48.8572437 C122.488992,46.9664874 126.270504,40.6639664 126.270504,37.2325938 Z M158.343333,59.2213894 C159.53381,59.2213894 161.424566,59.0113053 163.105238,54.8796527 C163.38535,54.2494006 163.525406,54.0393165 163.665462,54.0393165 C163.805518,54.0393165 163.875546,54.3194286 163.875546,54.5295126 L163.875546,54.7395966 C163.875546,54.8796527 164.295714,55.0197087 164.295714,55.0197087 C164.295714,58.1709692 161.424566,64.1933782 157.573025,64.1933782 C150.36014,64.1933782 147.839132,54.6695686 147.839132,42.9748908 C147.839132,24.5575238 154.141653,0.748 158.623445,0.748 C162.124846,0.748 163.525406,4.17937255 163.525406,9.29141737 C163.525406,19.655563 157.713081,37.0225098 151.480588,46.8264314 C151.900756,53.9692885 153.791513,59.2213894 158.343333,59.2213894 Z M160.094034,12.1625658 C160.094034,10.5519216 159.813922,9.57152941 159.253697,9.57152941 C156.522605,9.57152941 151.7607,27.5687283 151.41056,41.9244706 C156.592633,32.6807731 160.094034,18.0449188 160.094034,12.1625658 Z M179.841933,33.1009412 C180.752297,33.1009412 182.502997,34.0113053 182.502997,34.6415574 C182.502997,34.8516415 182.432969,35.0617255 182.362941,35.3418375 C181.872745,36.8824538 180.682269,44.725591 180.682269,50.958084 C180.682269,55.4398768 181.522605,58.8712493 183.273305,58.8712493 C184.183669,58.8712493 185.304118,57.9608852 186.704678,55.8600448 C186.914762,55.5099048 187.474986,54.6695686 187.68507,54.6695686 C187.755098,54.6695686 187.755098,54.7395966 187.755098,54.8796527 C187.755098,55.0197087 187.755098,55.2297927 187.68507,55.5099048 C187.68507,55.5799328 187.615042,55.5799328 187.615042,55.7900168 C187.615042,56.0001008 187.755098,56.0001008 187.755098,56.4202689 C187.755098,57.120549 185.094034,62.5127059 181.452577,62.5127059 C177.040812,62.5127059 175.500196,57.4006611 175.430168,51.4482801 C173.399356,56.840437 170.388151,63.7732101 166.606639,63.7732101 C162.755098,63.7732101 161.564622,58.3110252 161.564622,52.0785322 C161.564622,45.5659272 162.895154,38.142958 163.805518,35.1317535 C163.805518,35.1317535 164.08563,34.2213894 164.645854,34.2213894 C165.836331,34.2213894 167.026807,34.1513613 168.917563,33.7311933 C169.757899,33.7311933 169.757899,34.2914174 169.757899,34.2914174 C169.757899,35.0617255 166.606639,43.1149468 166.606639,55.8600448 C166.606639,58.5911373 167.096835,59.7115854 167.937171,59.7115854 C169.897955,59.7115854 173.60944,53.0589244 175.500196,47.7367955 C175.850336,42.3446387 177.11084,36.8824538 178.301317,34.4314734 C178.721485,33.5911373 179.211681,33.1009412 179.841933,33.1009412 Z M196.788711,16.0841345 C199.029608,16.0841345 199.869944,17.5547227 199.869944,19.305423 C199.869944,21.9664874 197.839132,25.3278319 195.388151,25.3278319 C193.147255,25.3278319 192.166863,23.6471597 192.166863,21.7564034 C192.166863,19.1653669 193.987591,16.0841345 196.788711,16.0841345 Z M210.304118,60.5519216 C210.304118,54.8096246 207.222885,43.4650868 207.222885,41.7844146 C206.452577,43.2550028 205.472185,46.7564034 204.001597,50.467888 C200.36014,59.5715294 196.438571,63.9132661 193.497395,63.9132661 C190.556218,63.9132661 188.595434,59.7115854 188.595434,51.7283922 C188.595434,45.6359552 189.645854,38.9132661 190.346134,35.9020616 C190.346134,35.9020616 190.626246,34.9916975 191.186471,34.9916975 C192.376947,34.9916975 193.567423,34.9216695 195.458179,34.5015014 C196.298515,34.5015014 196.298515,35.0617255 196.298515,35.0617255 C194.477787,45.2157871 193.497395,49.2774118 193.497395,56.2802129 C193.497395,59.4314734 193.987591,60.8320336 194.897955,60.8320336 C196.438571,60.8320336 199.099636,56.5603249 202.180868,49.4174678 C205.262101,42.3446387 206.662661,34.4314734 206.942773,31.4902969 C207.082829,29.9496807 210.164062,28.6191485 211.214482,28.6191485 C211.424566,28.6191485 211.774706,28.6891765 211.774706,28.9692885 C211.774706,29.0393165 210.724286,33.5911373 210.724286,38.9832941 C210.724286,44.0253109 215.066022,54.8096246 215.066022,60.5519216 C215.066022,65.9440784 211.214482,68.3250308 207.502997,68.3250308 C204.001597,68.3250308 200.640252,66.2942185 200.640252,62.6527619 C200.640252,61.1821737 201.06042,59.2213894 202.671064,59.2213894 C202.951176,59.2213894 203.161261,59.2213894 203.511401,59.3614454 C203.371345,59.9216695 203.301317,60.4818936 203.301317,60.9720896 C203.301317,63.353042 204.981989,64.6135462 206.732689,64.6135462 C208.483389,64.6135462 210.304118,63.283014 210.304118,60.5519216 Z M226.550616,16.0841345 C228.791513,16.0841345 229.631849,17.5547227 229.631849,19.305423 C229.631849,21.9664874 227.601036,25.3278319 225.150056,25.3278319 C222.90916,25.3278319 221.928768,23.6471597 221.928768,21.7564034 C221.928768,19.1653669 223.749496,16.0841345 226.550616,16.0841345 Z M248.679468,41.2942185 C248.679468,41.2942185 248.95958,41.0141064 249.239692,41.0141064 C249.449776,41.0141064 249.589832,41.1541625 249.589832,41.7143866 C249.589832,41.9944986 249.519804,42.3446387 249.449776,42.8348347 C249.519804,43.5351148 250.01,43.6751709 250.01,44.305423 C250.01,53.3390364 244.687871,60.4818936 237.124846,63.212986 C235.444174,63.8432381 233.343333,64.1933782 231.102437,64.1933782 C225.01,64.1933782 218.147255,61.4622857 218.147255,53.6891765 C218.147255,47.5967395 219.407759,38.9832941 220.108039,35.9020616 C220.108039,35.9020616 220.388151,34.9916975 220.948375,34.9916975 C222.138852,34.9916975 223.329328,34.9216695 225.220084,34.5015014 C226.06042,34.5015014 226.06042,35.0617255 226.06042,35.0617255 C224.239692,45.2157871 223.2593,49.2774118 223.2593,56.2802129 C223.2593,59.0813333 224.729888,60.0617255 226.7607,60.0617255 C235.654258,60.0617255 245.668263,48.0169076 248.679468,41.2942185 Z" id="jacine-luisi"></path>
            </g>
        </g>
    </g>
</svg>