<?xml version="1.0" standalone="no"?>
<!DOCTYPE svg PUBLIC "-//W3C//DTD SVG 20010904//EN"
 "http://www.w3.org/TR/2001/REC-SVG-20010904/DTD/svg10.dtd">
<svg version="1.0" xmlns="http://www.w3.org/2000/svg"
 width="2072.000000pt" height="2072.000000pt" viewBox="0 0 2072.000000 2072.000000"
 preserveAspectRatio="xMidYMid meet">
<metadata>
Created by potrace 1.11, written by Peter Selinger 2001-2013
</metadata>
<g transform="translate(0.000000,2072.000000) scale(0.100000,-0.100000)"
fill="#000000" stroke="none">
<path d="M13085 20671 c-271 -64 -484 -220 -652 -478 -221 -338 -283 -797
-159 -1165 139 -410 506 -642 994 -626 149 5 210 20 327 80 196 101 379 317
490 579 130 307 166 675 95 953 -89 350 -291 560 -625 651 -96 27 -368 30
-470 6z"/>
<path d="M12625 16019 c-402 -41 -671 -181 -700 -364 -4 -22 1 -251 9 -510 9
-258 23 -663 31 -900 8 -236 22 -659 30 -940 8 -280 19 -672 25 -870 63 -2090
-11 -4397 -196 -6120 -237 -2218 -667 -3753 -1280 -4570 -309 -412 -678 -637
-1159 -706 -108 -15 -388 -12 -501 6 -497 78 -949 311 -1319 680 -416 416
-651 934 -683 1510 -5 83 -14 161 -21 173 -18 33 -56 45 -99 31 -67 -22 -177
-76 -195 -96 -30 -34 -40 -125 -33 -307 20 -496 131 -938 340 -1351 448 -881
1267 -1489 2196 -1630 148 -23 449 -30 606 -16 634 58 1211 343 1705 842 272
274 486 581 679 974 461 933 743 2235 914 4215 74 854 117 1569 211 3570 108
2286 165 3253 266 4455 36 436 66 755 115 1226 37 348 37 358 20 402 -35 92
-134 177 -266 230 -153 60 -465 90 -695 66z"/>
</g>
</svg>
